<svg xmlns="http://www.w3.org/2000/svg" width="334.041" height="39.795" viewBox="0 0 334.041 39.795">
  <g id="company-logo-white" transform="translate(-170.31 -901.157)">
    <g id="Group_1515" data-name="Group 1515" transform="translate(170.31 902.515)">
      <g id="Group_1514" data-name="Group 1514" transform="translate(0 0)">
        <path id="Path_4378" data-name="Path 4378" d="M170.86,907.905h6.727a.506.506,0,0,1,.471.288v20.155q0,.314.053.838a.515.515,0,0,0-.053.236l.053.419q-.053.314-.053.367l.053.288-.053.419q0,.052.053.367c-.035.209-.053.332-.053.366s.017.157.053.366q-.053.315-.053.341a3.767,3.767,0,0,1,.053.55h-7.8V908.376Q170.31,907.905,170.86,907.905Zm-.55,25.416h7.8v.366h-7.8Zm0,.733h7.8v.366h-7.8Zm0,.707h7.8v.367h-7.8Zm0,.733h7.8v.366h-7.8Zm0,.785h7.8v.34h-7.8Zm0,.707h7.8v.367h-7.8Zm0,.733h7.8v.366h-7.8Zm0,.785h7.8v.34h-7.8Zm0,.707h7.8v.366h-7.8Zm0,.733h7.8v.366h-7.8Zm0,.706h7.8v.367h-7.8Zm0,.785h7.8v.366h-7.8Zm0,.733h7.8v.34h-7.8Zm0,.706h7.8v.367h-7.8Zm0,.733h7.8v.366h-7.8Zm0,.785h7.8v.34h-7.8Zm0,.707h7.8v.366h-7.8Z" transform="translate(-170.31 -907.905)" fill="#fefefe"/>
        <path id="Path_4379" data-name="Path 4379" d="M786.035,907.905h6.727a.507.507,0,0,1,.471.288v20.155q0,.314.052.838a.513.513,0,0,0-.052.236l.052.419c-.035.209-.052.332-.052.367l.052.288-.052.419c0,.035.017.157.052.367-.035.209-.052.332-.052.366s.017.157.052.366c-.035.21-.052.323-.052.341a3.8,3.8,0,0,1,.052.55h-7.8V908.376Q785.485,907.905,786.035,907.905Zm-.55,25.416h7.8v.366h-7.8Zm0,.733h7.8v.366h-7.8Zm0,.707h7.8v.367h-7.8Zm0,.733h7.8v.366h-7.8Zm0,.785h7.8v.34h-7.8Zm0,.707h7.8v.367h-7.8Zm0,.733h7.8v.366h-7.8Zm0,.785h7.8v.34h-7.8Zm0,.707h7.8v.366h-7.8Zm0,.733h7.8v.366h-7.8Zm0,.706h7.8v.367h-7.8Zm0,.785h7.8v.366h-7.8Zm0,.733h7.8v.34h-7.8Zm0,.706h7.8v.367h-7.8Zm0,.733h7.8v.366h-7.8Zm0,.785h7.8v.34h-7.8Zm0,.707h7.8v.366h-7.8Z" transform="translate(-661.648 -907.905)" fill="#fefefe"/>
      </g>
    </g>
    <g id="Group_1516" data-name="Group 1516" transform="translate(415.11 902.515)">
      <path id="Path_4380" data-name="Path 4380" d="M1386.376,945.924h9.062l10.638-20.684,10.243,20.684h9.259l-19.6-38.019Z" transform="translate(-1386.376 -907.905)" fill="#fefefe"/>
      <line id="Line_6" data-name="Line 6" x2="15.923" transform="translate(12.115 18.648)" fill="#f1f2f2"/>
      <line id="Line_7" data-name="Line 7" x2="15.923" transform="translate(12.115 19.83)" fill="#f1f2f2"/>
      <line id="Line_8" data-name="Line 8" x2="15.923" transform="translate(12.115 21.012)" fill="#f1f2f2"/>
      <line id="Line_9" data-name="Line 9" x2="15.923" transform="translate(12.115 22.194)" fill="#f1f2f2"/>
      <line id="Line_10" data-name="Line 10" x2="15.923" transform="translate(12.115 23.376)" fill="#f1f2f2"/>
      <line id="Line_11" data-name="Line 11" x2="15.923" transform="translate(12.115 24.558)" fill="#f1f2f2"/>
      <line id="Line_12" data-name="Line 12" x2="15.923" transform="translate(12.115 25.74)" fill="#f1f2f2"/>
      <line id="Line_13" data-name="Line 13" x2="15.923" transform="translate(12.115 26.922)" fill="#f1f2f2"/>
      <line id="Line_14" data-name="Line 14" x2="15.923" transform="translate(12.115 28.104)" fill="#f1f2f2"/>
      <line id="Line_15" data-name="Line 15" x2="15.923" transform="translate(12.115 29.286)" fill="#f1f2f2"/>
      <line id="Line_16" data-name="Line 16" x2="15.923" transform="translate(12.115 30.468)" fill="#f1f2f2"/>
      <line id="Line_17" data-name="Line 17" x2="15.923" transform="translate(12.115 31.65)" fill="#f1f2f2"/>
    </g>
    <g id="Group_1518" data-name="Group 1518" transform="translate(218.227 901.157)">
      <g id="Group_1517" data-name="Group 1517" transform="translate(0 0)">
        <path id="Path_4381" data-name="Path 4381" d="M442.574,907.257l-5.455,5.234a12.3,12.3,0,0,0-8.151-3.758c-.242-.015-.484-.02-.73-.02-.176,0-.348.005-.519.01-.247.01-.489.03-.73.055-.176.015-.348.035-.519.061-.247.035-.489.075-.731.131a4.593,4.593,0,0,0-.524.121c-.247.055-.489.126-.725.2-.176.055-.352.116-.524.181-.247.091-.494.192-.73.3-.176.075-.347.161-.519.252-.247.116-.494.247-.73.388-.176.106-.348.212-.519.328-.04.025-.086.05-.126.08-.206.141-.408.282-.6.438-.181.136-.353.277-.524.423-.252.217-.494.443-.73.68-.176.176-.348.363-.519.554a10.838,10.838,0,0,0-.73.922c-.181.252-.358.509-.519.776a11.612,11.612,0,0,0-.731,1.38c-.04.086-.081.171-.116.262a12.337,12.337,0,0,0,.846,11.254c.091.151.186.3.287.448.076.111.151.222.232.333.232.312.473.615.73.906.166.192.338.378.519.554.232.237.479.463.73.68.171.151.348.292.524.428.237.181.484.357.73.524.171.111.343.217.519.318.237.141.484.277.73.4.171.085.343.171.519.242.066.035.136.06.2.091q.264.114.529.212c.171.06.348.121.524.176.237.076.479.146.725.206.171.046.348.086.524.121.242.05.484.09.731.126.171.025.342.045.519.06.242.03.484.046.73.056.171,0,.348.01.519.01v7.556c-.171,0-.348,0-.519-.01-.247,0-.489-.015-.73-.03-.176-.01-.348-.02-.519-.04-.247-.015-.489-.045-.731-.075-.176-.02-.353-.045-.524-.071-.242-.035-.484-.08-.725-.126-.176-.03-.347-.071-.524-.111-.247-.05-.489-.106-.73-.171-.176-.045-.347-.091-.519-.146-.247-.065-.489-.141-.73-.227-.176-.055-.348-.111-.519-.176-.247-.086-.489-.181-.73-.282-.176-.071-.353-.141-.524-.222-.247-.106-.489-.222-.73-.337-.171-.086-.348-.171-.519-.262-.247-.131-.489-.267-.73-.408-.176-.1-.348-.207-.519-.307-.2-.131-.4-.262-.6-.4-.04-.03-.086-.055-.126-.091a19.9,19.9,0,1,1,25.59-30.2Z" transform="translate(-408.34 -901.157)" fill="#fefefe"/>
      </g>
      <rect id="Rectangle_381" data-name="Rectangle 381" width="0.73" height="34.939" transform="translate(19.9 4.857)" fill="#fefefe"/>
      <path id="Path_4382" data-name="Path 4382" d="M501.708,925.28v34.929c-.247,0-.489-.015-.73-.03v-34.9Z" transform="translate(-482.33 -920.424)" fill="#fefefe"/>
      <path id="Path_4383" data-name="Path 4383" d="M495.5,925.28v34.858c-.247-.015-.489-.045-.73-.076V925.28Z" transform="translate(-477.373 -920.424)" fill="#fefefe"/>
      <path id="Path_4384" data-name="Path 4384" d="M489.291,925.28v34.712c-.242-.035-.484-.081-.725-.126V925.28Z" transform="translate(-472.416 -920.424)" fill="#fefefe"/>
      <path id="Path_4385" data-name="Path 4385" d="M483.066,925.28v34.476c-.247-.05-.489-.106-.731-.171v-34.3Z" transform="translate(-467.439 -920.424)" fill="#fefefe"/>
      <path id="Path_4386" data-name="Path 4386" d="M476.86,925.28v34.158c-.247-.065-.489-.141-.73-.227V925.28Z" transform="translate(-462.484 -920.424)" fill="#fefefe"/>
      <path id="Path_4387" data-name="Path 4387" d="M470.654,925.28v33.755c-.247-.085-.489-.181-.73-.282V925.28Z" transform="translate(-457.527 -920.424)" fill="#fefefe"/>
      <path id="Path_4388" data-name="Path 4388" d="M464.423,925.28v33.252c-.247-.106-.489-.222-.73-.337V925.28Z" transform="translate(-452.55 -920.424)" fill="#fefefe"/>
      <path id="Path_4389" data-name="Path 4389" d="M458.217,925.28v32.652c-.247-.131-.489-.267-.73-.408V925.28Z" transform="translate(-447.593 -920.424)" fill="#fefefe"/>
      <path id="Path_4390" data-name="Path 4390" d="M452.012,925.28v31.937c-.2-.131-.4-.262-.6-.4-.04-.03-.086-.055-.126-.091V925.28Z" transform="translate(-442.637 -920.424)" fill="#fefefe"/>
    </g>
    <g id="Group_1520" data-name="Group 1520" transform="translate(343.193 902.985)">
      <g id="Group_1519" data-name="Group 1519" transform="translate(0 15.197)">
        <path id="Path_4391" data-name="Path 4391" d="M1065.862,985.731v3.525a18.369,18.369,0,0,1-36.49,3.017,17.983,17.983,0,0,1-.24-2.425c0-.2-.009-.395-.009-.592h7.049a11.324,11.324,0,0,0,21.753,4.408c.122-.287.23-.583.329-.883h-11.213v-7.049Z" transform="translate(-1029.123 -985.731)" fill="#fefefe"/>
      </g>
      <path id="Path_4392" data-name="Path 4392" d="M1118.585,910.236v30.39h-.451V910.265Z" transform="translate(-1100.216 -910.236)" fill="#fefefe"/>
      <path id="Path_4393" data-name="Path 4393" d="M1111.727,910.844v30.268h-.456V910.9Z" transform="translate(-1094.734 -910.722)" fill="#fefefe"/>
      <path id="Path_4394" data-name="Path 4394" d="M1104.887,911.824v30.071h-.456v-30C1104.586,911.871,1104.737,911.847,1104.887,911.824Z" transform="translate(-1089.271 -911.504)" fill="#fefefe"/>
      <path id="Path_4395" data-name="Path 4395" d="M1098.047,913.107v29.813h-.456V913.211C1097.746,913.178,1097.9,913.14,1098.047,913.107Z" transform="translate(-1083.808 -912.529)" fill="#fefefe"/>
      <path id="Path_4396" data-name="Path 4396" d="M1091.208,914.789v29.474h-.456V914.921C1090.907,914.874,1091.057,914.831,1091.208,914.789Z" transform="translate(-1078.346 -913.873)" fill="#fefefe"/>
      <path id="Path_4397" data-name="Path 4397" d="M1084.368,916.843V945.9h-.456V917C1084.063,916.946,1084.218,916.895,1084.368,916.843Z" transform="translate(-1072.883 -915.513)" fill="#fefefe"/>
      <path id="Path_4398" data-name="Path 4398" d="M1077.523,919.388v28.548h-.451v-28.36C1077.223,919.505,1077.373,919.444,1077.523,919.388Z" transform="translate(-1067.42 -917.546)" fill="#fefefe"/>
      <path id="Path_4399" data-name="Path 4399" d="M1070.683,922.422v27.937h-.451V922.648Z" transform="translate(-1061.957 -919.969)" fill="#fefefe"/>
      <path id="Path_4400" data-name="Path 4400" d="M1063.843,926.133v27.19h-.451V926.41C1063.542,926.312,1063.693,926.218,1063.843,926.133Z" transform="translate(-1056.494 -922.933)" fill="#fefefe"/>
      <path id="Path_4401" data-name="Path 4401" d="M1057,930.615V956.9h-.212v-8.651h-.24V930.963C1056.7,930.846,1056.854,930.728,1057,930.615Z" transform="translate(-1051.031 -926.513)" fill="#fefefe"/>
      <path id="Path_4402" data-name="Path 4402" d="M1050.164,936.264v16.5h-.451V936.7C1049.864,936.546,1050.009,936.405,1050.164,936.264Z" transform="translate(-1045.568 -931.025)" fill="#fefefe"/>
      <path id="Path_4403" data-name="Path 4403" d="M1043.3,943.548v15.033h-.456V944.135C1042.995,943.933,1043.145,943.736,1043.3,943.548Z" transform="translate(-1040.086 -936.842)" fill="#fefefe"/>
      <path id="Path_4404" data-name="Path 4404" d="M1036.466,953.633v13h-.456v-12.1C1036.151,954.225,1036.3,953.924,1036.466,953.633Z" transform="translate(-1034.624 -944.897)" fill="#fefefe"/>
      <path id="Path_4405" data-name="Path 4405" d="M1029.626,971.188v9.469h-.216a17.944,17.944,0,0,1-.24-2.425v-4.215A17.1,17.1,0,0,1,1029.626,971.188Z" transform="translate(-1029.161 -958.918)" fill="#fefefe"/>
      <rect id="Rectangle_382" data-name="Rectangle 382" width="0.454" height="14.292" transform="translate(19.326 16.099)" fill="#fefefe"/>
      <rect id="Rectangle_383" data-name="Rectangle 383" width="0.454" height="14.292" transform="translate(20.736 16.099)" fill="#fefefe"/>
      <rect id="Rectangle_384" data-name="Rectangle 384" width="0.454" height="14.292" transform="translate(22.145 16.099)" fill="#fefefe"/>
      <rect id="Rectangle_385" data-name="Rectangle 385" width="0.454" height="14.292" transform="translate(23.555 16.099)" fill="#fefefe"/>
      <rect id="Rectangle_386" data-name="Rectangle 386" width="0.454" height="14.292" transform="translate(24.965 16.099)" fill="#fefefe"/>
      <rect id="Rectangle_387" data-name="Rectangle 387" width="0.454" height="14.292" transform="translate(26.375 16.099)" fill="#fefefe"/>
    </g>
    <rect id="Rectangle_388" data-name="Rectangle 388" width="7.8" height="37.561" transform="translate(294.148 902.515)" fill="#fefefe"/>
    <rect id="Rectangle_389" data-name="Rectangle 389" width="7.8" height="37.561" transform="translate(496.551 902.515)" fill="#fefefe"/>
  </g>
</svg>
