<svg id="download" xmlns="http://www.w3.org/2000/svg" width="24" height="25.846" viewBox="0 0 24 25.846">
  <g id="Group_513" data-name="Group 513" transform="translate(0 16.615)">
    <g id="Group_512" data-name="Group 512">
      <path id="Path_87" data-name="Path 87" d="M40.143,307.2a.923.923,0,0,0-.923.923v5.538a.923.923,0,0,1-.923.923H19.835a.923.923,0,0,1-.923-.923v-5.538a.923.923,0,1,0-1.846,0v5.538a2.769,2.769,0,0,0,2.769,2.769H38.3a2.769,2.769,0,0,0,2.769-2.769v-5.538A.923.923,0,0,0,40.143,307.2Z" transform="translate(-17.066 -307.2)" fill="#b5b5b5"/>
    </g>
  </g>
  <g id="Group_515" data-name="Group 515" transform="translate(6.473)">
    <g id="Group_514" data-name="Group 514">
      <path id="Path_88" data-name="Path 88" d="M147.516,15.963a.923.923,0,0,0-1.283,0L143.192,19V.923a.923.923,0,0,0-1.846,0V19l-3.04-3.04A.923.923,0,0,0,137,17.268l4.615,4.615a.923.923,0,0,0,1.305,0l0,0,4.615-4.615A.923.923,0,0,0,147.516,15.963Z" transform="translate(-136.742)" fill="#b5b5b5"/>
    </g>
  </g>
</svg>
