<svg id="eye" xmlns="http://www.w3.org/2000/svg" width="24" height="15.297" viewBox="0 0 24 15.297">
  <g id="Group_517" data-name="Group 517" transform="translate(0 0)">
    <g id="Group_516" data-name="Group 516">
      <path id="Path_89" data-name="Path 89" d="M23.847,100.017c-.214-.293-5.323-7.182-11.848-7.182S.366,99.723.152,100.016a.792.792,0,0,0,0,.934c.214.293,5.323,7.182,11.848,7.182s11.633-6.888,11.848-7.181A.791.791,0,0,0,23.847,100.017ZM12,106.549c-4.806,0-8.969-4.572-10.2-6.066,1.231-1.5,5.384-6.065,10.2-6.065s8.968,4.571,10.2,6.066C20.97,101.98,16.816,106.549,12,106.549Z" transform="translate(0 -92.835)" fill="#b5b5b5"/>
    </g>
  </g>
  <g id="Group_519" data-name="Group 519" transform="translate(7.253 2.901)">
    <g id="Group_518" data-name="Group 518">
      <path id="Path_90" data-name="Path 90" d="M159.469,154.725a4.747,4.747,0,1,0,4.747,4.747A4.753,4.753,0,0,0,159.469,154.725Zm0,7.912a3.165,3.165,0,1,1,3.165-3.165A3.168,3.168,0,0,1,159.469,162.637Z" transform="translate(-154.722 -154.725)" fill="#b5b5b5"/>
    </g>
  </g>
</svg>
