<svg xmlns="http://www.w3.org/2000/svg" width="64" height="64" viewBox="0 0 64 64">
  <g id="icon-4" transform="translate(-307 -1000)">
    <g id="icon-4-2" data-name="icon-4" transform="translate(289)">
      <circle id="Ellipse_2" data-name="Ellipse 2" cx="32" cy="32" r="32" transform="translate(18 1000)" fill="#343434" opacity="0.996"/>
      <circle id="Ellipse_3" data-name="Ellipse 3" cx="29" cy="29" r="29" transform="translate(21 1003)" fill="#fff"/>
    </g>
    <g id="rss" transform="translate(329.787 1020)">
      <g id="Group_489" data-name="Group 489" transform="translate(0.213 18.32)">
        <g id="Group_488" data-name="Group 488" transform="translate(0)">
          <circle id="Ellipse_4" data-name="Ellipse 4" cx="2.34" cy="2.34" r="2.34" fill="#343434" stroke="#343434" stroke-width="1"/>
        </g>
      </g>
      <g id="Group_491" data-name="Group 491" transform="translate(0.213 12.47)">
        <g id="Group_490" data-name="Group 490">
          <path id="Path_71" data-name="Path 71" d="M4.9,213.676a8.221,8.221,0,0,0-4.682,0v2.492a5.85,5.85,0,0,1,7.7,7.7H10.4A8.19,8.19,0,0,0,4.9,213.676Z" transform="translate(-0.213 -213.335)" fill="#343434" stroke="#343434" stroke-width="1"/>
        </g>
      </g>
      <g id="Group_493" data-name="Group 493" transform="translate(0.213 6.62)">
        <g id="Group_492" data-name="Group 492">
          <path id="Path_72" data-name="Path 72" d="M5.035,106.878a13.86,13.86,0,0,0-4.822,0v2.34a11.7,11.7,0,0,1,13.806,13.829h2.34A13.958,13.958,0,0,0,5.035,106.878Z" transform="translate(-0.213 -106.666)" fill="#343434" stroke="#343434" stroke-width="1"/>
        </g>
      </g>
      <g id="Group_495" data-name="Group 495" transform="translate(0.213 0)">
        <g id="Group_494" data-name="Group 494" transform="translate(0 0)">
          <path id="Path_73" data-name="Path 73" d="M5.223.155A20.485,20.485,0,0,0,2.634,0,20.6,20.6,0,0,0,.213.157V2.578a18.152,18.152,0,0,1,2.421-.157A18.024,18.024,0,0,1,20.61,23h2.421A20.482,20.482,0,0,0,5.223.155Z" transform="translate(-0.213 0)" fill="#343434" stroke="#343434" stroke-width="1"/>
        </g>
      </g>
    </g>
  </g>
</svg>
