<svg xmlns="http://www.w3.org/2000/svg" width="64" height="64" viewBox="0 0 64 64">
  <g id="icon-6" transform="translate(-500 -1000)">
    <g id="icon-6-2" data-name="icon-6" transform="translate(482)">
      <circle id="Ellipse_2" data-name="Ellipse 2" cx="32" cy="32" r="32" transform="translate(18 1000)" fill="#343434" opacity="0.996"/>
      <circle id="Ellipse_3" data-name="Ellipse 3" cx="29" cy="29" r="29" transform="translate(21 1003)" fill="#fff"/>
    </g>
    <g id="speaker" transform="translate(410.279 1012.001)">
      <g id="Group_505" data-name="Group 505" transform="translate(109.721 -0.001)">
        <g id="Group_504" data-name="Group 504" transform="translate(0)">
          <path id="Path_83" data-name="Path 83" d="M265.149,188.561v3.246h8.117v-.957a2.147,2.147,0,0,0-1.116-1.864l-4.8-2.657Z" transform="translate(-252.929 -171.68)" fill="#343434"/>
          <path id="Path_84" data-name="Path 84" d="M199.776,9.522a6.745,6.745,0,0,0,1.2,2.072,1.131,1.131,0,0,1,.23.676V13.38l2.147,2.181L205.5,13.38V12.27a1.119,1.119,0,0,1,.222-.665,6.778,6.778,0,0,0,1.211-2.081,2.282,2.282,0,0,1,.657-1.181.8.8,0,0,0,.256-.583V6.285a.776.776,0,0,0-.091-.364l-.09-.171a2.237,2.237,0,0,1-.254-1.03V2.6A2.684,2.684,0,0,0,204.659,0h-2.606A2.684,2.684,0,0,0,199.3,2.6v2.12a2.234,2.234,0,0,1-.255,1.031l-.088.17a.773.773,0,0,0-.091.365V7.759a.8.8,0,0,0,.256.583A2.276,2.276,0,0,1,199.776,9.522Z" transform="translate(-191.855 0.001)" fill="#343434"/>
          <path id="Path_85" data-name="Path 85" d="M116.909,277.893h15.814V274.3h-23v3.594h4.313a.719.719,0,0,1,0,1.438h-1.965l3.252,13.658h11.8l3.252-13.658H116.909a.719.719,0,0,1,0-1.438Z" transform="translate(-109.721 -252.733)" fill="#343434"/>
          <path id="Path_86" data-name="Path 86" d="M151.739,188.559l-2.2-2.233-4.812,2.663a2.142,2.142,0,0,0-1.106,1.859v.957h8.117v-3.246Z" transform="translate(-140.957 -171.677)" fill="#343434"/>
        </g>
      </g>
    </g>
  </g>
</svg>
