<svg xmlns="http://www.w3.org/2000/svg" width="64" height="64" viewBox="0 0 64 64">
  <g id="icon-3" transform="translate(-211 -1000)">
    <g id="icon-3-2" data-name="icon-3" transform="translate(193)">
      <circle id="Ellipse_2" data-name="Ellipse 2" cx="32" cy="32" r="32" transform="translate(18 1000)" fill="#343434" opacity="0.996"/>
      <circle id="Ellipse_3" data-name="Ellipse 3" cx="29" cy="29" r="29" transform="translate(21 1003)" fill="#fff"/>
    </g>
    <g id="question_1_" data-name="question (1)" transform="translate(229 1005.4)">
      <g id="Group_497" data-name="Group 497" transform="translate(8.27 22.631)">
        <g id="Group_496" data-name="Group 496">
          <path id="Path_74" data-name="Path 74" d="M163.316,179.6a10.554,10.554,0,0,1-.727,3.808h4.591v1.632h-5.4a10.673,10.673,0,0,1-1.22,1.632h3.9V188.3h-5.773a10.549,10.549,0,0,1-5.979,1.85c-.236,0-.472-.009-.707-.024v1.983h11.836l3.669,4.831,4.08-5.373V179.6Z" transform="translate(-152 -179.6)" fill="#343434"/>
        </g>
      </g>
      <g id="Group_499" data-name="Group 499" transform="translate(0 13.6)">
        <g id="Group_498" data-name="Group 498">
          <path id="Path_75" data-name="Path 75" d="M8.977,13.6A8.987,8.987,0,0,0,0,22.577V33.393l4.41-3.087A8.977,8.977,0,1,0,8.977,13.6Zm.816,13.6H8.161V25.569H9.793Zm0-4.492v1.228H8.161v-2.72h.816a.816.816,0,1,0-.816-.816H6.529a2.448,2.448,0,1,1,3.264,2.308Z" transform="translate(0 -13.6)" fill="#343434"/>
        </g>
      </g>
    </g>
  </g>
</svg>
