<svg xmlns="http://www.w3.org/2000/svg" width="64" height="64" viewBox="0 0 64 64">
  <g id="icon-2" transform="translate(-114 -1000)">
    <g id="icon-2-2" data-name="icon-2" transform="translate(96)">
      <circle id="Ellipse_2" data-name="Ellipse 2" cx="32" cy="32" r="32" transform="translate(18 1000)" fill="#343434" opacity="0.996"/>
      <circle id="Ellipse_3" data-name="Ellipse 3" cx="29" cy="29" r="29" transform="translate(21 1003)" fill="#fff"/>
    </g>
    <g id="ballot" transform="translate(133 1019)">
      <path id="Path_76" data-name="Path 76" d="M.542,22.833h2.3a.541.541,0,0,0,.521-.394l2.4-8.448a1.083,1.083,0,0,0-.672-1.314A12.7,12.7,0,0,0,.533,12,.542.542,0,0,0,0,12.544v9.748a.542.542,0,0,0,.542.542Z" transform="translate(0 1)" fill="#343434"/>
      <path id="Path_77" data-name="Path 77" d="M23.437,17.807c-2.167,0-6.5,2.742-8.667,2.742a9.977,9.977,0,0,1-4.6-1.659,33.748,33.748,0,0,0,4.6.542c1.686,0,2.167-.575,2.167-1.354,0-1.9-3.22-2.191-4.849-2.439A9.963,9.963,0,0,0,7.01,13.82a2.611,2.611,0,0,1-.082.461l-2.176,7.67c2.465,1.121,6.709,2.9,8.936,2.9,3.25,0,11.917-4.333,11.917-5.417S24.521,17.807,23.437,17.807Z" transform="translate(0.396 1.152)" fill="#343434"/>
      <path id="Path_78" data-name="Path 78" d="M18.966,11.917a1.826,1.826,0,0,0,1.3-.537l2.031-2.031a1.848,1.848,0,0,0,.538-1.3V1.69A1.692,1.692,0,0,0,21.143,0H13.69A1.692,1.692,0,0,0,12,1.69v8.537a1.692,1.692,0,0,0,1.69,1.69ZM14.705,5.334a.814.814,0,0,1,1.145.1l.752.9,2.385-2.818a.812.812,0,1,1,1.24,1.05L17.217,8.125a.815.815,0,0,1-.62.288.838.838,0,0,1-.624-.291L14.6,6.479a.814.814,0,0,1,.1-1.145Z" transform="translate(1)" fill="#343434"/>
    </g>
  </g>
</svg>
