<svg id="instagram-feed" xmlns="http://www.w3.org/2000/svg" width="26" height="26" viewBox="0 0 26 26">
  <path id="Path_96" data-name="Path 96" d="M18.962,0H7.038A7.046,7.046,0,0,0,0,7.038V18.962A7.046,7.046,0,0,0,7.038,26H18.962A7.046,7.046,0,0,0,26,18.962V7.038A7.046,7.046,0,0,0,18.962,0ZM13,20.109A7.109,7.109,0,1,1,20.109,13,7.117,7.117,0,0,1,13,20.109ZM20.279,7.567a2.1,2.1,0,1,1,2.1-2.1A2.1,2.1,0,0,1,20.279,7.567Zm0,0" fill="#fff"/>
  <path id="Path_97" data-name="Path 97" d="M149.546,146.02a3.527,3.527,0,1,0,3.527,3.527A3.531,3.531,0,0,0,149.546,146.02Zm0,0" transform="translate(-136.546 -136.546)" fill="#fff"/>
  <path id="Path_98" data-name="Path 98" d="M388.356,96.3a.364.364,0,1,0,.364.364A.364.364,0,0,0,388.356,96.3Zm0,0" transform="translate(-367.952 -91.327)" fill="#fff"/>
</svg>
