<svg xmlns="http://www.w3.org/2000/svg" width="54" height="57.306" viewBox="0 0 54 57.306">
  <g id="pdf" transform="translate(-14.769)">
    <g id="Group_521" data-name="Group 521" transform="translate(14.769)">
      <g id="Group_520" data-name="Group 520" transform="translate(0)">
        <path id="Path_91" data-name="Path 91" d="M68.461,15.508,53.861.338A1.1,1.1,0,0,0,53.067,0H31.308a4.421,4.421,0,0,0-4.416,4.415V19.837H18.073a3.307,3.307,0,0,0-3.3,3.3V39.676a3.307,3.307,0,0,0,3.3,3.3h8.818V52.9a4.417,4.417,0,0,0,4.416,4.407H64.353a4.415,4.415,0,0,0,4.416-4.4V16.272A1.1,1.1,0,0,0,68.461,15.508ZM53.34,2.975,65.325,15.429H53.34Zm-35.267,37.8a1.1,1.1,0,0,1-1.1-1.1V23.14a1.1,1.1,0,0,1,1.1-1.1H47.832a1.1,1.1,0,0,1,1.1,1.1V39.676a1.1,1.1,0,0,1-1.1,1.1ZM66.565,52.9a2.209,2.209,0,0,1-2.212,2.2H31.308A2.21,2.21,0,0,1,29.1,52.9V42.98H47.832a3.307,3.307,0,0,0,3.3-3.3V23.14a3.307,3.307,0,0,0-3.3-3.3H29.1V4.415A2.214,2.214,0,0,1,31.308,2.2H51.136V16.531a1.1,1.1,0,0,0,1.1,1.1H66.565V52.9Z" transform="translate(-14.769)" fill="#4952cc"/>
      </g>
    </g>
    <g id="Group_523" data-name="Group 523" transform="translate(21.528 26.665)">
      <g id="Group_522" data-name="Group 522">
        <path id="Path_92" data-name="Path 92" d="M79.6,241.462a2.592,2.592,0,0,0-1.423-.968,11.617,11.617,0,0,0-2.374-.148H72.6v9.885h2V246.5h1.3a11.389,11.389,0,0,0,2.07-.142A2.892,2.892,0,0,0,79,245.892a2.711,2.711,0,0,0,.84-.974,3.225,3.225,0,0,0,.33-1.531A3.069,3.069,0,0,0,79.6,241.462Zm-1.709,2.721a1.31,1.31,0,0,1-.624.486,5.16,5.16,0,0,1-1.578.155H74.592v-2.805h.964a9.585,9.585,0,0,1,1.436.067,1.38,1.38,0,0,1,.8.438,1.277,1.277,0,0,1,.317.89A1.328,1.328,0,0,1,77.886,244.183Z" transform="translate(-72.596 -240.346)" fill="#4952cc"/>
      </g>
    </g>
    <g id="Group_525" data-name="Group 525" transform="translate(29.939 26.665)">
      <g id="Group_524" data-name="Group 524">
        <path id="Path_93" data-name="Path 93" d="M159.309,243.047a4.319,4.319,0,0,0-.944-1.6,3.306,3.306,0,0,0-1.49-.91,7.124,7.124,0,0,0-1.881-.189h-3.648v9.885H155.1a6.035,6.035,0,0,0,1.767-.209,3.507,3.507,0,0,0,1.4-.789,4.359,4.359,0,0,0,1.059-1.746,6.5,6.5,0,0,0,.3-2.1A7.3,7.3,0,0,0,159.309,243.047Zm-1.942,4.059a2.092,2.092,0,0,1-.523.954,1.842,1.842,0,0,1-.806.411,5.434,5.434,0,0,1-1.207.094h-1.49v-6.547h.9a9.042,9.042,0,0,1,1.638.094,1.9,1.9,0,0,1,.924.465,2.262,2.262,0,0,1,.566.957,5.9,5.9,0,0,1,.2,1.76A6.448,6.448,0,0,1,157.367,247.106Z" transform="translate(-151.346 -240.346)" fill="#4952cc"/>
      </g>
    </g>
    <g id="Group_527" data-name="Group 527" transform="translate(39.475 26.665)">
      <g id="Group_526" data-name="Group 526">
        <path id="Path_94" data-name="Path 94" d="M243.623,242.018v-1.672h-6.777v9.885h2v-4.2h4.127v-1.672h-4.127v-2.34Z" transform="translate(-236.846 -240.346)" fill="#4952cc"/>
      </g>
    </g>
  </g>
</svg>
