<svg xmlns="http://www.w3.org/2000/svg" width="36.721" height="29.836" viewBox="0 0 36.721 29.836">
  <path id="twitter_2_" data-name="twitter (2)" d="M36.721,51.532a15.7,15.7,0,0,1-4.338,1.189A7.486,7.486,0,0,0,35.7,48.56a15.045,15.045,0,0,1-4.774,1.822A7.528,7.528,0,0,0,17.9,55.53a7.752,7.752,0,0,0,.174,1.717A21.309,21.309,0,0,1,2.557,49.372,7.53,7.53,0,0,0,4.87,59.434a7.435,7.435,0,0,1-3.4-.927v.083a7.563,7.563,0,0,0,6.031,7.4,7.513,7.513,0,0,1-1.974.248A6.656,6.656,0,0,1,4.1,66.106a7.6,7.6,0,0,0,7.034,5.244A15.127,15.127,0,0,1,1.8,74.561a14.1,14.1,0,0,1-1.8-.1,21.194,21.194,0,0,0,11.549,3.378c13.853,0,21.427-11.475,21.427-21.422,0-.333-.011-.654-.028-.973A15.018,15.018,0,0,0,36.721,51.532Z" transform="translate(0 -48)" fill="#fff"/>
</svg>
