<svg xmlns="http://www.w3.org/2000/svg" width="31" height="31" viewBox="0 0 31 31">
  <g id="twttier" transform="translate(-546 -181)">
    <circle id="Ellipse_9" data-name="Ellipse 9" cx="15.5" cy="15.5" r="15.5" transform="translate(546 181)" fill="#1ca9f4"/>
    <path id="twitter_2_" data-name="twitter (2)" d="M15,49.443a6.411,6.411,0,0,1-1.772.486,3.058,3.058,0,0,0,1.353-1.7,6.146,6.146,0,0,1-1.95.744,3.075,3.075,0,0,0-5.319,2.1,3.166,3.166,0,0,0,.071.7,8.7,8.7,0,0,1-6.338-3.217,3.076,3.076,0,0,0,.945,4.11A3.037,3.037,0,0,1,.6,52.292v.034a3.089,3.089,0,0,0,2.464,3.022,3.069,3.069,0,0,1-.806.1,2.719,2.719,0,0,1-.582-.053,3.1,3.1,0,0,0,2.873,2.142A6.179,6.179,0,0,1,.736,58.85,5.759,5.759,0,0,1,0,58.808a8.657,8.657,0,0,0,4.718,1.38,8.692,8.692,0,0,0,8.753-8.751c0-.136,0-.267-.011-.4A6.135,6.135,0,0,0,15,49.443Z" transform="translate(555 143)" fill="#fff"/>
  </g>
</svg>
